<svg width="17" height="16" viewBox="0 0 17 16" fill="none" xmlns="http://www.w3.org/2000/svg">
<path d="M8.50031 4.66669C5.37497 4.66669 2.98231 7.59669 2.69564 7.96269C2.67697 7.98669 2.67697 8.01335 2.69564 8.03735C2.98231 8.40335 5.37497 11.3334 8.50031 11.3334C11.621 11.3334 14.1576 8.41135 14.4683 8.03869C14.489 8.01402 14.489 7.98535 14.4683 7.96069C14.1576 7.58869 11.621 4.66669 8.50031 4.66669ZM10.4616 9.94335C10.457 9.95002 10.4503 9.95602 10.4443 9.96069C7.59564 12.1174 4.38297 8.90469 6.53964 6.05602C6.54431 6.04935 6.55097 6.04335 6.55697 6.03869C9.40564 3.88269 12.6176 7.09469 10.4616 9.94335ZM8.50031 6.00002C7.39564 6.00002 6.50031 6.89535 6.50031 8.00002C6.50031 9.10469 7.39564 10 8.50031 10C9.60497 10 10.5003 9.10469 10.5003 8.00002C10.5003 6.89535 9.60497 6.00002 8.50031 6.00002Z" fill="#868686"/>
</svg>
