<svg width="24" height="24" viewBox="0 0 24 24" fill="none" xmlns="http://www.w3.org/2000/svg">
<path d="M5 5.1V6.9C5 6.955 5.045 7 5.1 7H18.9C18.955 7 19 6.955 19 6.9V5.1C19 5.045 18.955 5 18.9 5H5.1C5.045 5 5 5.045 5 5.1ZM5 9.1V10.9C5 10.955 5.045 11 5.1 11H18.9C18.955 11 19 10.955 19 10.9V9.1C19 9.045 18.955 9 18.9 9H5.1C5.045 9 5 9.045 5 9.1ZM5.1 15H18.9C18.955 15 19 14.955 19 14.9V13.1C19 13.045 18.955 13 18.9 13H5.1C5.045 13 5 13.045 5 13.1V14.9C5 14.955 5.045 15 5.1 15ZM19 18.9V17.1C19 17.045 18.955 17 18.9 17H5.1C5.045 17 5 17.045 5 17.1V18.9C5 18.955 5.045 19 5.1 19H18.9C18.955 19 19 18.955 19 18.9Z" fill="#070604"/>
</svg>
