<svg width="24" height="24" viewBox="0 0 24 24" fill="none" xmlns="http://www.w3.org/2000/svg">
<path d="M7 5.1V6.9C7 6.955 7.045 7 7.1 7H20.9C20.955 7 21 6.955 21 6.9V5.1C21 5.045 20.955 5 20.9 5H7.1C7.045 5 7 5.045 7 5.1ZM13.1 11H20.9C20.955 11 21 10.955 21 10.9V9.1C21 9.045 20.955 9 20.9 9H13.1C13.045 9 13 9.045 13 9.1V10.9C13 10.955 13.045 11 13.1 11ZM9.1 15H20.9C20.955 15 21 14.955 21 14.9V13.1C21 13.045 20.955 13 20.9 13H9.1C9.045 13 9 13.045 9 13.1V14.9C9 14.955 9.045 15 9.1 15ZM7.1 19H20.9C20.955 19 21 18.955 21 18.9V17.1C21 17.045 20.955 17 20.9 17H7.1C7.045 17 7 17.045 7 17.1V18.9C7 18.955 7.045 19 7.1 19Z" fill="#070604"/>
</svg>
