<svg width="24" height="24" viewBox="0 0 24 24" fill="none" xmlns="http://www.w3.org/2000/svg">
<path d="M5 5.1V6.9C5 6.955 5.045 7 5.1 7H18.9C18.955 7 19 6.955 19 6.9V5.1C19 5.045 18.955 5 18.9 5H5.1C5.045 5 5 5.045 5 5.1ZM5 17.1V18.9C5 18.955 5.045 19 5.1 19H18.9C18.955 19 19 18.955 19 18.9V17.1C19 17.045 18.955 17 18.9 17H5.1C5.045 17 5 17.045 5 17.1ZM9 9.1V10.9C9 10.955 9.045 11 9.1 11H15.9C15.955 11 16 10.955 16 10.9V9.1C16 9.045 15.955 9 15.9 9H9.1C9.045 9 9 9.045 9 9.1ZM7.083 15H16.916C16.963 15 17 14.955 17 14.9V13.1C17 13.045 16.963 13 16.917 13H7.083C7.037 13 7 13.045 7 13.1V14.9C7 14.955 7.037 15 7.083 15Z" fill="#070604"/>
</svg>
