<svg width="24" height="24" viewBox="0 0 24 24" fill="none" xmlns="http://www.w3.org/2000/svg">
<path d="M12.071 7.071C12.032 7.032 11.969 7.032 11.93 7.071L8.171 10.83C8.108 10.892 8.152 11 8.241 11H10.9C10.955 11 11 11.045 11 11.1V18.9C11 18.955 11.045 19 11.1 19H12.9C12.955 19 13 18.955 13 18.9V11.1C13 11.045 13.045 11 13.1 11H15.759C15.848 11 15.893 10.892 15.83 10.829L12.071 7.071ZM18.9 3H5.1C5.045 3 5 3.045 5 3.1V4.9C5 4.955 5.045 5 5.1 5H18.9C18.955 5 19 4.955 19 4.9V3.1C19 3.045 18.955 3 18.9 3Z" fill="#070604"/>
</svg>
