<svg width="24" height="24" viewBox="0 0 24 24" fill="none" xmlns="http://www.w3.org/2000/svg">
<path d="M11.9301 15.93C11.9488 15.9483 11.974 15.9586 12.0001 15.9586C12.0263 15.9586 12.0514 15.9483 12.0701 15.93L15.8301 12.17C15.8438 12.156 15.8531 12.1383 15.8569 12.1191C15.8606 12.0999 15.8587 12.08 15.8512 12.0619C15.8438 12.0438 15.8312 12.0283 15.815 12.0173C15.7988 12.0063 15.7797 12.0003 15.7601 12H13.1001C13.0866 12.0016 13.0729 12.0001 13.0601 11.9957C13.0472 11.9912 13.0355 11.9839 13.0259 11.9743C13.0162 11.9646 13.0089 11.9529 13.0045 11.9401C13 11.9272 12.9985 11.9135 13.0001 11.9V4.09999C13.0017 4.08647 13.0003 4.07276 12.9958 4.0599C12.9914 4.04703 12.984 4.03535 12.9744 4.02572C12.9648 4.01609 12.9531 4.00878 12.9402 4.00432C12.9274 3.99986 12.9137 3.99838 12.9001 3.99999H11.1001C11.0866 3.99838 11.0729 3.99986 11.06 4.00432C11.0472 4.00878 11.0355 4.01609 11.0259 4.02572C11.0162 4.03535 11.0089 4.04703 11.0045 4.0599C11 4.07276 10.9985 4.08647 11.0001 4.09999V11.9C11.0017 11.9135 11.0003 11.9272 10.9958 11.9401C10.9914 11.9529 10.984 11.9646 10.9744 11.9743C10.9648 11.9839 10.9531 11.9912 10.9402 11.9957C10.9274 12.0001 10.9137 12.0016 10.9001 12H8.24014C8.22057 12.0003 8.20151 12.0063 8.18532 12.0173C8.16913 12.0283 8.15653 12.0438 8.14908 12.0619C8.14163 12.08 8.13965 12.0999 8.14339 12.1191C8.14714 12.1383 8.15644 12.156 8.17014 12.17L11.9301 15.93ZM18.9301 18H5.10014C5.08662 17.9984 5.07291 17.9999 5.06005 18.0043C5.04718 18.0088 5.0355 18.0161 5.02587 18.0257C5.01625 18.0353 5.00893 18.047 5.00447 18.0599C5.00001 18.0728 4.99853 18.0865 5.00014 18.1V19.9C4.99853 19.9135 5.00001 19.9272 5.00447 19.9401C5.00893 19.9529 5.01625 19.9646 5.02587 19.9743C5.0355 19.9839 5.04718 19.9912 5.06005 19.9957C5.07291 20.0001 5.08662 20.0016 5.10014 20H18.9001C18.9137 20.0016 18.9274 20.0001 18.9402 19.9957C18.9531 19.9912 18.9648 19.9839 18.9744 19.9743C18.984 19.9646 18.9914 19.9529 18.9958 19.9401C19.0003 19.9272 19.0017 19.9135 19.0001 19.9V18.1C19.0017 18.0865 19.0003 18.0728 18.9958 18.0599C18.9914 18.047 18.984 18.0353 18.9744 18.0257C18.9648 18.0161 18.9531 18.0088 18.9402 18.0043C18.9274 17.9999 18.9137 17.9984 18.9001 18H18.9301Z" fill="#070604"/>
</svg>
