<svg width="24" height="24" viewBox="0 0 24 24" fill="none" xmlns="http://www.w3.org/2000/svg">
<path d="M16.9 5H3.1C3.045 5 3 5.045 3 5.1V6.9C3 6.955 3.045 7 3.1 7H16.9C16.955 7 17 6.955 17 6.9V5.1C17 5.045 16.955 5 16.9 5ZM3.1 11H10.9C10.955 11 11 10.955 11 10.9V9.1C11 9.045 10.955 9 10.9 9H3.1C3.045 9 3 9.045 3 9.1V10.9C3 10.955 3.045 11 3.1 11ZM3.1 15H14.9C14.955 15 15 14.955 15 14.9V13.1C15 13.045 14.955 13 14.9 13H3.1C3.045 13 3 13.045 3 13.1V14.9C3 14.955 3.045 15 3.1 15ZM16.9 17H3.1C3.045 17 3 17.045 3 17.1V18.9C3 18.955 3.045 19 3.1 19H16.9C16.955 19 17 18.955 17 18.9V17.1C17 17.045 16.955 17 16.9 17Z" fill="#070604"/>
</svg>
