<svg width="24" height="24" viewBox="0 0 24 24" fill="none" xmlns="http://www.w3.org/2000/svg">
<path fill-rule="evenodd" clip-rule="evenodd" d="M15.83 5.17L12.071 8.929C12.032 8.968 11.968 8.968 11.93 8.93L8.17101 5.171C8.10801 5.108 8.15201 5 8.24101 5H10.9C10.955 5 11 4.955 11 4.9V2.1C11 2.045 11.045 2 11.1 2H12.9C12.955 2 13 2.045 13 2.1V4.9C13 4.955 13.045 5 13.1 5H15.759C15.848 5 15.892 5.108 15.83 5.17ZM19 12.9V11.1C19 11.045 18.955 11 18.9 11H5.1C5.045 11 5 11.045 5 11.1V12.9C5 12.955 5.045 13 5.1 13H18.9C18.955 13 19 12.955 19 12.9ZM11.929 15.071L8.17001 18.83C8.10801 18.892 8.15201 19 8.24101 19H10.9C10.955 19 11 19.045 11 19.1V21.9C11 21.955 11.045 22 11.1 22H12.9C12.955 22 13 21.955 13 21.9V19.1C13 19.045 13.045 19 13.1 19H15.759C15.848 19 15.893 18.892 15.83 18.829L12.071 15.07C12.032 15.032 11.968 15.032 11.929 15.071Z" fill="#070604"/>
</svg>
