<svg width="24" height="24" viewBox="0 0 24 24" fill="none" xmlns="http://www.w3.org/2000/svg">
<path d="M20.002 8.56902C20.857 7.78502 20.039 6.31802 19.002 6.83702L13.381 10.082C13.344 10.103 13.296 10.097 13.264 10.07C12.702 9.59301 12.293 9.24602 12.169 9.14102C11.563 8.62901 12.391 6.85202 11.61 6.32802C5.67802 2.34802 4.67002 9.15501 5.13302 9.51602C5.14202 9.52302 5.15102 9.52702 5.16102 9.53302L9.59602 12.094C9.66302 12.132 9.66302 12.229 9.59602 12.267L5.14502 14.837C4.65102 15.084 5.64502 21.292 11.609 18.033C12.434 17.582 11.562 15.733 12.168 15.22C12.775 14.708 20.002 8.56902 20.002 8.56902ZM8.71902 18.167C7.54002 18.167 6.58402 17.211 6.58402 16.032C6.58402 14.853 7.54002 13.897 8.71902 13.897C9.89802 13.897 10.854 14.853 10.854 16.032C10.854 17.211 9.89802 18.167 8.71902 18.167ZM8.71902 10.333C7.54002 10.333 6.58402 9.37702 6.58402 8.19802C6.58402 7.01902 7.54002 6.06302 8.71902 6.06302C9.89802 6.06302 10.854 7.01902 10.854 8.19802C10.854 9.37702 9.89802 10.333 8.71902 10.333ZM17.144 13.321C17.104 13.287 17.045 13.289 17.008 13.326L15.103 15.231C15.056 15.278 15.067 15.355 15.124 15.388L19.002 17.523C20.039 18.042 20.857 16.575 20.002 15.791C20.002 15.792 18.917 14.827 17.144 13.321Z" fill="#070604"/>
</svg>
