<svg width="24" height="24" viewBox="0 0 24 24" fill="none" xmlns="http://www.w3.org/2000/svg">
<path d="M16.586 4.99995L14.289 7.29695C14.264 7.32195 14.228 7.33095 14.194 7.32195C13.492 7.12395 12.76 6.99995 12 6.99995C7.31297 6.99995 3.72397 11.394 3.29297 11.944C3.26497 11.98 3.26497 12.02 3.29297 12.056C3.52597 12.352 4.67697 13.76 6.42097 14.998C6.47097 15.033 6.47897 15.105 6.43597 15.149L3.99997 17.586C3.96097 17.625 3.96097 17.688 3.99997 17.727L5.27197 19C5.31097 19.039 5.37397 19.039 5.41297 19L18 6.41395C18.039 6.37495 18.039 6.31195 18 6.27295L16.728 4.99995C16.689 4.96095 16.625 4.96095 16.586 4.99995ZM12.532 9.05395C12.359 9.02295 12.182 8.99995 12 8.99995C10.343 8.99995 8.99997 10.343 8.99997 12C8.99997 12.182 9.02297 12.359 9.05397 12.532L8.24697 13.339C8.09597 12.919 7.99997 12.472 7.99997 12C7.99997 9.79095 9.79097 7.99995 12 7.99995C12.472 7.99995 12.919 8.09595 13.339 8.24695L12.532 9.05395ZM12 15C13.657 15 15 13.657 15 12C15 11.818 14.977 11.641 14.946 11.468L11.467 14.947C11.641 14.977 11.818 15 12 15ZM17.462 8.95195L15.796 10.618C15.77 10.644 15.761 10.682 15.773 10.717C15.912 11.121 16 11.549 16 12C16 14.209 14.209 16 12 16C11.528 16 11.081 15.904 10.661 15.753L9.75497 16.66C10.467 16.867 11.216 17 12 17C16.681 17 20.485 12.618 20.952 12.059C20.983 12.022 20.983 11.979 20.952 11.942C20.696 11.637 19.44 10.191 17.593 8.94095C17.552 8.91295 17.496 8.91795 17.462 8.95195Z" fill="#070604"/>
</svg>
