<svg width="24" height="24" viewBox="0 0 24 24" fill="none" xmlns="http://www.w3.org/2000/svg">
<path d="M15 4.9V3.1C15 3.045 14.955 3 14.9 3H9.1C9.045 3 9 3.045 9 3.1V4.9C9 4.955 8.955 5 8.9 5H5.1C5.045 5 5 5.045 5 5.1V19.9C5 19.955 5.045 20 5.1 20H18.9C18.955 20 19 19.955 19 19.9V5.1C19 5.045 18.955 5 18.9 5H15.1C15.045 5 15 4.955 15 4.9ZM10 4H14V5H10V4ZM16.9 18H7.1C7.045 18 7 17.955 7 17.9V7.1C7 7.045 7.045 7 7.1 7H8.9C8.955 7 9 7.045 9 7.1V9.9C9 9.955 9.045 10 9.1 10H14.9C14.955 10 15 9.955 15 9.9V7.1C15 7.045 15.045 7 15.1 7H16.9C16.955 7 17 7.045 17 7.1V17.9C17 17.955 16.955 18 16.9 18Z" fill="#070604"/>
</svg>
