<svg width="16" height="16" viewBox="0 0 16 16" fill="none" xmlns="http://www.w3.org/2000/svg">
<path fill-rule="evenodd" clip-rule="evenodd" d="M6.55351 5.85896L4.04751 3.35296C4.02151 3.32696 3.97885 3.32696 3.95285 3.35229L1.44685 5.85829C1.40485 5.90029 1.43485 5.97229 1.49418 5.97229H3.26685C3.30351 5.97229 3.33351 6.00229 3.33351 6.03896V12.5723C3.33351 12.609 3.36351 12.639 3.40018 12.639H4.60018C4.63685 12.639 4.66685 12.609 4.66685 12.5723V6.03896C4.66685 6.00229 4.69685 5.97229 4.73351 5.97229H6.50618C6.56551 5.97229 6.59485 5.90029 6.55351 5.85896ZM10.922 3.54171H10.6825H10.2918H10.0601L8.66683 7.33338H9.6486L9.86726 6.62504H11.1194L11.3387 7.33338H12.3231L10.922 3.54171ZM10.901 5.91931H10.0851L10.4925 4.59973L10.901 5.91931ZM11.9663 11.2969V12H9.67464H9.22152H9.01318V11.5183L10.8224 8.9141H9.00016V8.20838H11.3127H11.6538H11.9481V8.67713L10.1557 11.2969H11.9663Z" fill="#070604"/>
</svg>
