<svg width="16" height="16" viewBox="0 0 16 16" fill="none" xmlns="http://www.w3.org/2000/svg">
<path fill-rule="evenodd" clip-rule="evenodd" d="M6.55351 10.1134L4.04751 12.6194C4.02151 12.6454 3.97885 12.6454 3.95285 12.62L1.44685 10.114C1.40485 10.072 1.43485 10 1.49418 10H3.26685C3.30351 10 3.33351 9.97004 3.33351 9.93337V3.40004C3.33351 3.36337 3.36351 3.33337 3.40018 3.33337H4.60018C4.63685 3.33337 4.66685 3.36337 4.66685 3.40004V9.93337C4.66685 9.97004 4.69685 10 4.73351 10H6.50618C6.56551 10 6.59485 10.072 6.55351 10.1134ZM10.922 3.54171H10.6825H10.2918H10.0601L8.66683 7.33337H9.6486L9.86726 6.62504H11.1194L11.3387 7.33337H12.3231L10.922 3.54171ZM10.901 5.91931H10.0851L10.4925 4.59973L10.901 5.91931ZM11.9663 11.2969V12H9.67464H9.22152H9.01318V11.5183L10.8224 8.9141H9.00016V8.20837H11.3127H11.6538H11.9481V8.67712L10.1557 11.2969H11.9663Z" fill="#070604"/>
</svg>
