<svg width="16" height="16" viewBox="0 0 16 16" fill="none" xmlns="http://www.w3.org/2000/svg">
<path fill-rule="evenodd" clip-rule="evenodd" d="M6.55351 5.85896L4.04751 3.35296C4.02151 3.32696 3.97885 3.32696 3.95285 3.35229L1.44685 5.85829C1.40485 5.90029 1.43485 5.97229 1.49418 5.97229H3.26685C3.30351 5.97229 3.33351 6.00229 3.33351 6.03896V12.5723C3.33351 12.609 3.36351 12.639 3.40018 12.639H4.60018C4.63685 12.639 4.66685 12.609 4.66685 12.5723V6.03896C4.66685 6.00229 4.69685 5.97229 4.73351 5.97229H6.50618C6.56551 5.97229 6.59485 5.90029 6.55351 5.85896ZM14.6668 3.40004V4.60004C14.6668 4.63671 14.6368 4.66671 14.6002 4.66671H8.06683C8.03016 4.66671 8.00016 4.63671 8.00016 4.60004V3.40004C8.00016 3.36337 8.03016 3.33337 8.06683 3.33337H14.6002C14.6368 3.33337 14.6668 3.36337 14.6668 3.40004ZM8.00016 7.26671V6.06671C8.00016 6.03004 8.03016 6.00004 8.06683 6.00004H12.6002C12.6368 6.00004 12.6668 6.03004 12.6668 6.06671V7.26671C12.6668 7.30337 12.6368 7.33337 12.6002 7.33337H8.06683C8.03016 7.33337 8.00016 7.30337 8.00016 7.26671ZM8.00016 8.73337V9.93337C8.00016 9.97004 8.03016 10 8.06683 10H11.2668C11.3035 10 11.3335 9.97004 11.3335 9.93337V8.73337C11.3335 8.69671 11.3035 8.66671 11.2668 8.66671H8.06683C8.03016 8.66671 8.00016 8.69671 8.00016 8.73337ZM8.00016 12.6V11.4C8.00016 11.3634 8.03016 11.3334 8.06683 11.3334H9.26683C9.3035 11.3334 9.3335 11.3634 9.3335 11.4V12.6C9.3335 12.6367 9.3035 12.6667 9.26683 12.6667H8.06683C8.03016 12.6667 8.00016 12.6367 8.00016 12.6Z" fill="#070604"/>
</svg>
