<svg width="24" height="24" viewBox="0 0 24 24" fill="none" xmlns="http://www.w3.org/2000/svg">
<path d="M12 7C7.31197 7 3.72297 11.395 3.29297 11.944C3.26497 11.98 3.26497 12.02 3.29297 12.056C3.72297 12.605 7.31197 17 12 17C16.681 17 20.486 12.617 20.952 12.058C20.983 12.021 20.983 11.978 20.952 11.941C20.486 11.383 16.681 7 12 7ZM14.942 14.915C14.935 14.925 14.925 14.934 14.916 14.941C10.643 18.176 5.82397 13.357 9.05897 9.084C9.06597 9.074 9.07597 9.065 9.08497 9.058C13.358 5.824 18.176 10.642 14.942 14.915ZM12 9C10.343 9 8.99997 10.343 8.99997 12C8.99997 13.657 10.343 15 12 15C13.657 15 15 13.657 15 12C15 10.343 13.657 9 12 9Z" fill="#070604"/>
</svg>
