<svg width="169" height="24" viewBox="0 0 169 24" fill="none" xmlns="http://www.w3.org/2000/svg">
<g clip-path="url(#clip0_1_3307)">
<path d="M-0.0244751 16.5529V0.0209961H3.51808V6.51568H10.8394V0.0209961H14.3819V16.5529H10.8394V9.82206H3.51808V16.5529H-0.0244751Z" fill="white"/>
<path d="M18.2134 15.1595C17.1585 13.9787 16.6311 12.4357 16.6311 10.5306C16.6311 8.62546 17.1585 7.09036 18.2134 5.92525C19.284 4.7444 20.6066 4.15398 22.1811 4.15398C23.236 4.15398 24.1885 4.46887 25.0387 5.09866C25.4008 5.3978 25.7079 5.7127 25.9598 6.04334H26.0779V4.50823H29.3843V16.5529H26.0779V15.0178H25.9598C25.7079 15.3484 25.4008 15.6633 25.0387 15.9625C24.1885 16.5923 23.236 16.9072 22.1811 16.9072C20.6066 16.9072 19.284 16.3246 18.2134 15.1595ZM20.8821 7.9327C20.3311 8.56249 20.0555 9.42844 20.0555 10.5306C20.0555 11.6327 20.3311 12.4987 20.8821 13.1284C21.4332 13.7582 22.1417 14.0731 23.0077 14.0731C23.9208 14.0731 24.6608 13.7661 25.2277 13.1521C25.7945 12.5223 26.0779 11.6484 26.0779 10.5306C26.0779 9.4127 25.7945 8.54674 25.2277 7.9327C24.6608 7.30291 23.9208 6.98802 23.0077 6.98802C22.1417 6.98802 21.4332 7.30291 20.8821 7.9327Z" fill="white"/>
<path d="M31.9821 16.5529V4.50823H35.2885V6.16142H35.4066C35.6113 5.79929 35.9025 5.46866 36.2804 5.16951C37.1464 4.49249 38.1147 4.15398 39.1853 4.15398C40.6811 4.15398 41.8383 4.58695 42.657 5.45291C43.4915 6.31887 43.9087 7.57844 43.9087 9.23164V16.5529H40.6023V9.70398C40.6023 8.82227 40.3819 8.15312 39.9411 7.69653C39.5159 7.22419 38.9098 6.98802 38.1225 6.98802C37.3353 6.98802 36.6662 7.28717 36.1151 7.88546C35.564 8.48376 35.2885 9.24738 35.2885 10.1763V16.5529H31.9821Z" fill="white"/>
<path d="M47.3887 15.1595C46.3338 13.9787 45.8064 12.4357 45.8064 10.5306C45.8064 8.62546 46.3338 7.09036 47.3887 5.92525C48.4594 4.7444 49.7819 4.15398 51.3564 4.15398C52.4113 4.15398 53.3638 4.46887 54.214 5.09866C54.5762 5.3978 54.8832 5.7127 55.1351 6.04334H55.2532V0.0209961H58.5596V16.5529H55.2532V15.0178H55.1351C54.8832 15.3484 54.5762 15.6633 54.214 15.9625C53.3638 16.5923 52.4113 16.9072 51.3564 16.9072C49.7819 16.9072 48.4594 16.3246 47.3887 15.1595ZM50.0574 7.9327C49.5064 8.56249 49.2308 9.42844 49.2308 10.5306C49.2308 11.6327 49.5064 12.4987 50.0574 13.1284C50.6085 13.7582 51.317 14.0731 52.183 14.0731C53.0962 14.0731 53.8362 13.7661 54.403 13.1521C54.9698 12.5223 55.2532 11.6484 55.2532 10.5306C55.2532 9.4127 54.9698 8.54674 54.403 7.9327C53.8362 7.30291 53.0962 6.98802 52.183 6.98802C51.317 6.98802 50.6085 7.30291 50.0574 7.9327Z" fill="white"/>
<path d="M60.3308 12.6561H63.7553C63.8655 12.9395 64.0387 13.1993 64.2749 13.4355C64.7787 13.9393 65.4715 14.1912 66.3532 14.1912C67.6915 14.1912 68.3606 13.7976 68.3606 13.0104C68.3606 12.8844 68.3291 12.7742 68.2662 12.6797C68.2032 12.5695 68.093 12.475 67.9355 12.3963C67.7781 12.3018 67.6285 12.2231 67.4868 12.1601C67.3451 12.0972 67.1325 12.0342 66.8491 11.9712C66.5815 11.8925 66.3611 11.8374 66.1879 11.8059C66.0304 11.7744 65.7706 11.7193 65.4085 11.6406C65.0621 11.5618 64.8102 11.5067 64.6528 11.4753C62.1651 10.9399 60.9213 9.71972 60.9213 7.81461C60.9213 6.80695 61.37 5.94887 62.2674 5.24036C63.1806 4.5161 64.4245 4.15398 65.9989 4.15398C68.1087 4.15398 69.6911 4.80738 70.7459 6.11419C71.2025 6.681 71.5096 7.32653 71.667 8.05078H68.3606C68.2504 7.81461 68.1087 7.6178 67.9355 7.46036C67.4474 7.06674 66.8019 6.86993 65.9989 6.86993C65.4321 6.86993 65.0149 6.9644 64.7472 7.15334C64.4796 7.32653 64.3457 7.54695 64.3457 7.81461C64.3457 7.90908 64.3615 8.00355 64.393 8.09802C64.4402 8.17674 64.5111 8.25546 64.6055 8.33419C64.7 8.39717 64.7945 8.46015 64.8889 8.52312C64.9834 8.57036 65.1172 8.62546 65.2904 8.68844C65.4636 8.73568 65.6132 8.78291 65.7391 8.83015C65.8808 8.87738 66.0619 8.92461 66.2823 8.97185C66.5028 9.01908 66.6917 9.05844 66.8491 9.08993C67.0066 9.12142 67.2113 9.16866 67.4632 9.23164C67.7151 9.27887 67.9198 9.31823 68.0772 9.34972C70.5491 9.90078 71.7851 11.121 71.7851 13.0104C71.7851 14.0653 71.297 14.9784 70.3208 15.7499C69.3447 16.5214 68.0221 16.9072 66.3532 16.9072C64.1174 16.9072 62.4642 16.1987 61.3936 14.7816C60.9055 14.1361 60.5513 13.4276 60.3308 12.6561Z" fill="white"/>
<path d="M74.8618 15.065C73.6022 13.8212 72.9724 12.3097 72.9724 10.5306C72.9724 8.75142 73.6022 7.24781 74.8618 6.01972C76.1213 4.77589 77.6958 4.15398 79.5852 4.15398C81.4588 4.15398 83.0254 4.77589 84.285 6.01972C85.5603 7.24781 86.1979 8.75142 86.1979 10.5306C86.1979 12.3097 85.5603 13.8212 84.285 15.065C83.0254 16.2931 81.4588 16.9072 79.5852 16.9072C77.6958 16.9072 76.1213 16.2931 74.8618 15.065ZM77.3179 7.97993C76.7039 8.64121 76.3969 9.49142 76.3969 10.5306C76.3969 11.5697 76.7039 12.4199 77.3179 13.0812C77.932 13.7425 78.6877 14.0731 79.5852 14.0731C80.4826 14.0731 81.2384 13.7425 81.8524 13.0812C82.4664 12.4199 82.7735 11.5697 82.7735 10.5306C82.7735 9.49142 82.4664 8.64121 81.8524 7.97993C81.2384 7.31866 80.4826 6.98802 79.5852 6.98802C78.6877 6.98802 77.932 7.31866 77.3179 7.97993Z" fill="white"/>
<path d="M88.0956 16.5529V4.50823H91.402V6.16142H91.5201C91.7247 5.79929 92.016 5.46866 92.3939 5.16951C93.2599 4.49249 94.2281 4.15398 95.2988 4.15398C96.7945 4.15398 97.9518 4.58695 98.7705 5.45291C99.605 6.31887 100.022 7.57844 100.022 9.23164V16.5529H96.7158V9.70398C96.7158 8.82227 96.4954 8.15312 96.0545 7.69653C95.6294 7.22419 95.0233 6.98802 94.236 6.98802C93.4488 6.98802 92.7796 7.28717 92.2286 7.88546C91.6775 8.48376 91.402 9.24738 91.402 10.1763V16.5529H88.0956Z" fill="white"/>
<path d="M101.566 7.34227V4.50823H103.101V1.91036H106.407V4.50823H109.808V7.34227H106.407V13.7189H109.95V16.5529H103.101V7.34227H101.566Z" fill="white"/>
<path d="M112.82 15.1595C111.765 13.9787 111.238 12.4357 111.238 10.5306C111.238 8.62546 111.765 7.09036 112.82 5.92525C113.89 4.7444 115.213 4.15398 116.788 4.15398C117.842 4.15398 118.795 4.46887 119.645 5.09866C120.007 5.3978 120.314 5.7127 120.566 6.04334H120.684V4.50823H123.991V16.5529H120.684V15.0178H120.566C120.314 15.3484 120.007 15.6633 119.645 15.9625C118.795 16.5923 117.842 16.9072 116.788 16.9072C115.213 16.9072 113.89 16.3246 112.82 15.1595ZM115.489 7.9327C114.938 8.56249 114.662 9.42844 114.662 10.5306C114.662 11.6327 114.938 12.4987 115.489 13.1284C116.04 13.7582 116.748 14.0731 117.614 14.0731C118.527 14.0731 119.267 13.7661 119.834 13.1521C120.401 12.5223 120.684 11.6484 120.684 10.5306C120.684 9.4127 120.401 8.54674 119.834 7.9327C119.267 7.30291 118.527 6.98802 117.614 6.98802C116.748 6.98802 116.04 7.30291 115.489 7.9327Z" fill="white"/>
<path d="M126.589 16.5529V0.0209961H129.895V6.04334H130.013C130.265 5.7127 130.572 5.3978 130.934 5.09866C131.784 4.46887 132.737 4.15398 133.792 4.15398C135.366 4.15398 136.681 4.7444 137.736 5.92525C138.806 7.09036 139.342 8.62546 139.342 10.5306C139.342 12.4357 138.806 13.9787 137.736 15.1595C136.681 16.3246 135.366 16.9072 133.792 16.9072C132.737 16.9072 131.784 16.5923 130.934 15.9625C130.572 15.6633 130.265 15.3484 130.013 15.0178H129.895V16.5529H126.589ZM130.745 7.9327C130.178 8.54674 129.895 9.4127 129.895 10.5306C129.895 11.6484 130.178 12.5223 130.745 13.1521C131.312 13.7661 132.052 14.0731 132.965 14.0731C133.831 14.0731 134.54 13.7582 135.091 13.1284C135.642 12.4987 135.917 11.6327 135.917 10.5306C135.917 9.42844 135.642 8.56249 135.091 7.9327C134.54 7.30291 133.831 6.98802 132.965 6.98802C132.052 6.98802 131.312 7.30291 130.745 7.9327Z" fill="white"/>
<path d="M141.349 16.5529V0.0209961H144.656V13.7189H147.372V16.5529H141.349Z" fill="white"/>
<path d="M150.071 15.065C148.827 13.8212 148.206 12.3097 148.206 10.5306C148.206 8.75142 148.827 7.24781 150.071 6.01972C151.331 4.77589 152.874 4.15398 154.7 4.15398C156.558 4.15398 158.085 4.76802 159.282 5.9961C160.479 7.22419 161.077 8.73568 161.077 10.5306V11.2391H151.63C151.756 12.0263 152.11 12.6955 152.693 13.2465C153.275 13.7976 153.944 14.0731 154.7 14.0731C155.535 14.0731 156.251 13.837 156.849 13.3646C157.086 13.1599 157.274 12.9238 157.416 12.6561H160.959C160.691 13.4591 160.297 14.1676 159.778 14.7816C158.518 16.1987 156.826 16.9072 154.7 16.9072C152.874 16.9072 151.331 16.2931 150.071 15.065ZM151.748 9.23164H157.534C157.408 8.60185 157.086 8.0744 156.566 7.64929C156.062 7.20844 155.44 6.98802 154.7 6.98802C153.96 6.98802 153.33 7.20057 152.811 7.62568C152.291 8.05078 151.937 8.5861 151.748 9.23164Z" fill="white"/>
<path d="M161.106 16.9788H168.28V24H161.106V16.9788Z" fill="#27C2FF"/>
</g>
<defs>
<clipPath id="clip0_1_3307">
<rect width="168.255" height="24" fill="white"/>
</clipPath>
</defs>
</svg>
